# xmcd
#
# Track frame offsets:
#  180
#  9314
#  17191
#  25099
#  34012
#  45449
#  58632
#  69713
#  83773
#  95465
#  106889
#  118080
#  129313
#  142669
#  154723
#  165839
#  178689
#  194553
#  205483
#  222150
#
# Disc length: 3187 seconds
#
# Revision: 0
# Processed by: cddbd v1.5.1PL2 Copyright (c) Steve Scherf et al.
# Submitted via: Collectorz.com_Music_Collector 6.9
#
DISCID=030c7114
DTITLE=Various Artist - Country Classics
DYEAR=1900
DGENRE=country
TTITLE0=Roger Miller - Chug A Lug
TTITLE1=Roger Miller - Dang Me
TTITLE2=Roger Miller - Do-Wacka-Do
TTITLE3=Sandy Posey - Born A Woman
TTITLE4=Sandy Posey - Single Girl
TTITLE5=Conway Twitty - Danny Boy
TTITLE6=Conway Twitty - It's Only Make Believe
TTITLE7=Conway Twitty - You've Never Been This Far Before
TTITLE8=Patsy Cline - Walking After Midnight
TTITLE9=Patsy Cline - Crazy Dreams
TTITLE10=Patsy Cline - Hungry For Love
TTITLE11=Hank Locklin - Let Me Be The One
TTITLE12=Jerry Wallace - Even The Bad Times Are Good
TTITLE13=Jerry Wallace - She'll Remember
TTITLE14=Jerry Wallace - Primrose Lane
TTITLE15=Bill Anderson - Still
TTITLE16=Bill Anderson - Mama Sang A Song
TTITLE17=Bill Anderson - Wild Weekend
TTITLE18=Lee Greenwood - Ring On Her Finger Time On Her Hands
TTITLE19=Lee Greenwood - Somebody's Gonna Love You
EXTD=
EXTT0=
EXTT1=
EXTT2=
EXTT3=
EXTT4=
EXTT5=
EXTT6=
EXTT7=
EXTT8=
EXTT9=
EXTT10=
EXTT11=
EXTT12=
EXTT13=
EXTT14=
EXTT15=
EXTT16=
EXTT17=
EXTT18=
EXTT19=
PLAYORDER=
